<svg width="150" height="47" viewBox="0 0 150 47" fill="none" xmlns="http://www.w3.org/2000/svg">
<g id="Amazon.com, Inc." clip-path="url(#clip0_101_239)">
<g id="Clip path group">
<mask id="mask0_101_239" style="mask-type:luminance" maskUnits="userSpaceOnUse" x="0" y="0" width="150" height="47">
<g id="clip0_28_1315">
<path id="Vector" d="M150 0H0V46.9726H150V0Z" fill="white"/>
</g>
</mask>
<g mask="url(#mask0_101_239)">
<g id="Group">
<path id="Vector_2" d="M93.0363 36.6965C84.33 43.3547 71.7108 46.907 60.8457 46.907C45.6114 46.907 31.8963 41.061 21.5204 31.3376C20.7052 30.573 21.4357 29.531 22.4139 30.1265C33.6114 36.8861 47.457 40.9527 61.7589 40.9527C71.4042 40.9527 82.0149 38.8822 91.7712 34.5856C93.2451 33.936 94.4775 35.5869 93.0363 36.6965Z" fill="#FF9900"/>
<path id="Vector_3" d="M96.6561 32.3996C95.5473 30.9246 89.2995 31.7027 86.4954 32.0479C85.641 32.1562 85.5105 31.3846 86.28 30.8299C91.2561 27.1963 99.4212 28.2451 100.373 29.4631C101.325 30.6878 100.126 39.1794 95.4495 43.2326C94.7322 43.8551 94.0473 43.5236 94.3668 42.6982C95.4168 39.9781 97.7712 33.8815 96.6561 32.3996Z" fill="#FF9900"/>
<path id="Vector_4" d="M86.6907 5.1791V1.64706C86.6907 1.11252 87.0822 0.753906 87.5517 0.753906H102.793C103.282 0.753906 103.673 1.11929 103.673 1.64706V4.67163C103.666 5.1791 103.256 5.84221 102.525 6.89096L94.6275 18.59C97.5624 18.5156 100.66 18.9689 103.321 20.5252C103.921 20.877 104.084 21.3912 104.13 21.8987V25.6676C104.13 26.1818 103.582 26.784 103.008 26.4728C98.3187 23.9219 92.0907 23.6444 86.9061 26.4999C86.3778 26.7975 85.8234 26.2021 85.8234 25.6879V22.1085C85.8234 21.5334 85.83 20.5522 86.3844 19.6794L95.5341 6.06547H87.5712C87.0822 6.06547 86.6907 5.70687 86.6907 5.1791Z" fill="#221F1F"/>
<path id="Vector_5" d="M31.0944 27.2168H26.4575C26.014 27.183 25.6618 26.8379 25.6292 26.3981V1.7077C25.6292 1.21375 26.027 0.821301 26.5227 0.821301H30.8466C31.2966 0.841588 31.6551 1.20022 31.6878 1.6468V4.87434H31.7727C32.9007 1.75506 35.0202 0.300293 37.8768 0.300293C40.779 0.300293 42.5919 1.75506 43.8963 4.87434C45.018 1.75506 47.568 0.300293 50.3004 0.300293C52.2438 0.300293 54.3699 1.13255 55.6677 3.00006C57.135 5.07732 56.835 8.09512 56.835 10.7408L56.8287 26.3236C56.8287 26.8176 56.4306 27.2168 55.935 27.2168H51.3048C50.8416 27.183 50.4699 26.7973 50.4699 26.3236V13.2375C50.4699 12.1955 50.5614 9.59725 50.3397 8.60935C49.9938 6.95162 48.957 6.48473 47.6136 6.48473C46.4919 6.48473 45.318 7.26285 44.8419 8.50788C44.3658 9.75288 44.4114 11.8369 44.4114 13.2375V26.3236C44.4114 26.8176 44.0136 27.2168 43.518 27.2168H38.8875C38.418 27.183 38.0529 26.7973 38.0529 26.3236L38.0463 13.2375C38.0463 10.4837 38.4834 6.4306 35.19 6.4306C31.8573 6.4306 31.9878 10.3822 31.9878 13.2375V26.3236C31.9878 26.8176 31.59 27.2168 31.0944 27.2168Z" fill="#221F1F"/>
<path id="Vector_6" d="M116.794 0.300293C123.675 0.300293 127.399 6.4306 127.399 14.2254C127.399 21.7564 123.283 27.731 116.794 27.731C110.038 27.731 106.36 21.6007 106.36 13.9615C106.36 6.27498 110.084 0.300293 116.794 0.300293ZM116.834 5.34123C113.416 5.34123 113.201 10.1724 113.201 13.1834C113.201 16.2012 113.155 22.6427 116.794 22.6427C120.388 22.6427 120.557 17.4462 120.557 14.2795C120.557 12.1955 120.473 9.70551 119.866 7.72973C119.344 6.01109 118.307 5.34123 116.834 5.34123Z" fill="#221F1F"/>
<path id="Vector_7" d="M136.32 27.2168H131.703C131.24 27.183 130.868 26.7973 130.868 26.3236L130.862 1.62649C130.901 1.17315 131.286 0.821301 131.755 0.821301H136.053C136.457 0.841588 136.79 1.12579 136.881 1.51147V5.28707H136.966C138.264 1.91068 140.083 0.300293 143.285 0.300293C145.366 0.300293 147.394 1.07842 148.698 3.20983C149.911 5.1856 149.911 8.50788 149.911 10.8964V26.4387C149.859 26.8717 149.474 27.2168 149.018 27.2168H144.368C143.944 27.183 143.592 26.8582 143.546 26.4387V13.0278C143.546 10.328 143.846 6.37648 140.644 6.37648C139.516 6.37648 138.479 7.16138 137.964 8.35225C137.312 9.86114 137.227 11.3633 137.227 13.0278V26.3236C137.22 26.8176 136.816 27.2168 136.32 27.2168Z" fill="#221F1F"/>
<path id="Vector_8" d="M74.541 15.4228V14.3808C71.1891 14.3808 67.6476 15.1251 67.6476 19.2255C67.6476 21.3028 68.6847 22.7102 70.4652 22.7102C71.7693 22.7102 72.9369 21.8779 73.6737 20.5247C74.5866 18.8601 74.541 17.2971 74.541 15.4228ZM79.2171 27.1489C78.9105 27.4331 78.4671 27.4534 78.1215 27.2639C76.5822 25.9377 76.3083 25.322 75.4605 24.0567C72.9171 26.7497 71.1171 27.5549 67.8174 27.5549C63.9174 27.5549 60.8784 25.0581 60.8784 20.0578C60.8784 16.1536 62.9196 13.4944 65.8218 12.1953C68.3391 11.045 71.8542 10.842 74.541 10.524V9.90151C74.541 8.75798 74.6259 7.40472 73.9803 6.41685C73.4127 5.53045 72.3303 5.16506 71.3781 5.16506C69.6108 5.16506 68.0325 6.10559 67.6476 8.05428C67.5696 8.48734 67.263 8.91361 66.8457 8.9339L62.3457 8.43321C61.9674 8.34525 61.5501 8.0272 61.6545 7.42501C62.6913 1.76835 67.6152 0.0632324 72.0237 0.0632324C74.2803 0.0632324 77.2281 0.685735 79.0083 2.45852C81.2649 4.64404 81.0495 7.56035 81.0495 10.7338V18.2309C81.0495 20.4841 81.9495 21.4719 82.7973 22.6899C83.0973 23.1229 83.1627 23.6439 82.7844 23.9687C81.8388 24.7875 80.1561 26.3099 79.23 27.1624L79.2171 27.1489Z" fill="#221F1F"/>
<path id="Vector_9" d="M13.7533 15.4228V14.3808C10.4012 14.3808 6.85994 15.1251 6.85994 19.2255C6.85994 21.3028 7.89686 22.7102 9.67727 22.7102C10.9816 22.7102 12.149 21.8779 12.8859 20.5247C13.7989 18.8601 13.7533 17.2971 13.7533 15.4228ZM18.4293 27.1489C18.1227 27.4331 17.6793 27.4534 17.3336 27.2639C15.7945 25.9377 15.5206 25.322 14.6728 24.0567C12.1294 26.7497 10.3294 27.5549 7.0295 27.5549C3.12959 27.5549 0.0905151 25.0581 0.0905151 20.0578C0.0905151 16.1536 2.13178 13.4944 5.0339 12.1953C7.55123 11.045 11.0664 10.842 13.7533 10.524V9.90151C13.7533 8.75798 13.8381 7.40472 13.1924 6.41685C12.625 5.53045 11.5425 5.16506 10.5903 5.16506C8.82293 5.16506 7.24472 6.10559 6.85994 8.05428C6.78167 8.48734 6.47516 8.91361 6.05777 8.9339L1.55788 8.43321C1.17962 8.34525 0.76224 8.0272 0.866586 7.42501C1.90352 1.76835 6.82733 0.0632324 11.2359 0.0632324C13.4924 0.0632324 16.4402 0.685735 18.2206 2.45852C20.4771 4.64404 20.2618 7.56035 20.2618 10.7338V18.2309C20.2618 20.4841 21.1618 21.4719 22.0096 22.6899C22.3096 23.1229 22.3748 23.6439 21.9966 23.9687C21.051 24.7875 19.3684 26.3099 18.4423 27.1624L18.4293 27.1489Z" fill="#221F1F"/>
</g>
</g>
</g>
</g>
<defs>
<clipPath id="clip0_101_239">
<rect width="150" height="47" fill="white"/>
</clipPath>
</defs>
</svg>
