<svg width="150" height="47" viewBox="0 0 150 47" fill="none" xmlns="http://www.w3.org/2000/svg">
<g id="Clip path group">
<mask id="mask0_101_238" style="mask-type:luminance" maskUnits="userSpaceOnUse" x="0" y="0" width="150" height="47">
<g id="clip0_21_609">
<path id="Vector" d="M150 0H0V47H150V0Z" fill="white"/>
</g>
</mask>
<g mask="url(#mask0_101_238)">
<g id="Group">
<path id="Vector_2" d="M0 43.7273H29.165V46.9883H0V43.7273Z" fill="#1F70C1"/>
<path id="Vector_3" d="M0 37.4724H29.165V40.7449H0V37.4724Z" fill="#1F70C1"/>
<path id="Vector_4" d="M8.32022 31.2288H20.83V34.5014H8.32022V31.2288Z" fill="#1F70C1"/>
<path id="Vector_5" d="M8.32022 24.9856H20.83V28.2582H8.32022V24.9856Z" fill="#1F70C1"/>
<path id="Vector_6" d="M8.32022 18.7419H20.83V22.0145H8.32022V18.7419Z" fill="#1F70C1"/>
<path id="Vector_7" d="M8.32022 12.4871H20.83V15.7597H8.32022V12.4871Z" fill="#1F70C1"/>
<path id="Vector_8" d="M29.165 6.24341H0V9.51602H29.165V6.24341Z" fill="#1F70C1"/>
<path id="Vector_9" d="M29.165 0H0V3.27261H29.165V0Z" fill="#1F70C1"/>
<path id="Vector_10" d="M33.325 40.7448H78.1794C78.9371 39.7352 79.5016 38.6327 79.8435 37.4722H33.325V40.7448Z" fill="#1F70C1"/>
<path id="Vector_11" d="M74.688 24.9856H41.6601V28.2582H78.1795C77.2286 27.0047 76.0548 25.9024 74.688 24.9856Z" fill="#1F70C1"/>
<path id="Vector_12" d="M41.6601 18.7419V22.0145H74.688C76.0846 21.0977 77.2582 19.9952 78.1795 18.7419H41.6601Z" fill="#1F70C1"/>
<path id="Vector_13" d="M78.1795 6.24341H33.325V9.51602H79.8435C79.4572 8.35551 78.8927 7.25312 78.1795 6.24341Z" fill="#1F70C1"/>
<path id="Vector_14" d="M64.3919 0H33.325V3.27261H75.1039C72.3108 1.25329 68.5222 0 64.3919 0Z" fill="#1F70C1"/>
<path id="Vector_15" d="M54.1551 12.4871H41.6601V15.7597H54.1551V12.4871Z" fill="#1F70C1"/>
<path id="Vector_16" d="M66.665 15.7597H79.7394C80.1108 14.7153 80.3041 13.6128 80.3041 12.4871H66.665V15.7597Z" fill="#1F70C1"/>
<path id="Vector_17" d="M41.6601 31.2288H54.1551V34.5014H41.6601V31.2288Z" fill="#1F70C1"/>
<path id="Vector_18" d="M66.665 31.2288V34.5014H80.3041C80.3041 33.3757 80.1108 32.2732 79.7394 31.2288H66.665Z" fill="#1F70C1"/>
<path id="Vector_19" d="M33.325 46.9651L64.3919 46.9999C68.552 46.9999 72.3108 45.7466 75.1188 43.7273H33.325V46.9651Z" fill="#1F70C1"/>
<path id="Vector_20" d="M83.3351 43.7273H104.165V46.9883H83.3351V43.7273Z" fill="#1F70C1"/>
<path id="Vector_21" d="M83.3351 37.4724H104.165V40.7449H83.3351V37.4724Z" fill="#1F70C1"/>
<path id="Vector_22" d="M91.6551 31.2288H104.165V34.5014H91.6551V31.2288Z" fill="#1F70C1"/>
<path id="Vector_23" d="M91.6551 24.9856H104.165V28.2582H91.6551V24.9856Z" fill="#1F70C1"/>
<path id="Vector_24" d="M109.959 6.24341H83.3351V9.51602H111.401L109.959 6.24341Z" fill="#1F70C1"/>
<path id="Vector_25" d="M107.196 0H83.3351V3.27261H108.637L107.196 0Z" fill="#1F70C1"/>
<path id="Vector_26" d="M129.155 43.7273H150V46.9883H129.155V43.7273Z" fill="#1F70C1"/>
<path id="Vector_27" d="M129.155 37.4724H150V40.7449H129.155V37.4724Z" fill="#1F70C1"/>
<path id="Vector_28" d="M129.155 31.2288H141.664V34.5014H129.155V31.2288Z" fill="#1F70C1"/>
<path id="Vector_29" d="M129.155 24.9856H141.664V28.2582H129.155V24.9856Z" fill="#1F70C1"/>
<path id="Vector_30" d="M129.155 22.0145H141.664V18.7419H129.155H117.834L116.66 21.3879L115.486 18.7419H104.165H91.6551V22.0145H104.165V19.0089L105.487 22.0145H127.833L129.155 19.0089V22.0145Z" fill="#1F70C1"/>
<path id="Vector_31" d="M141.664 12.4871H120.597L119.156 15.7597H141.664V12.4871Z" fill="#1F70C1"/>
<path id="Vector_32" d="M126.139 0L124.698 3.27261H150V0H126.139Z" fill="#1F70C1"/>
<path id="Vector_33" d="M116.66 46.9651L118.101 43.7273H115.219L116.66 46.9651Z" fill="#1F70C1"/>
<path id="Vector_34" d="M113.897 40.7449H119.424L120.909 37.4724H112.426L113.897 40.7449Z" fill="#1F70C1"/>
<path id="Vector_35" d="M111.089 34.5014H122.232L123.702 31.2288H109.618L111.089 34.5014Z" fill="#1F70C1"/>
<path id="Vector_36" d="M108.295 28.2582H125.039L126.466 24.9856H106.854L108.295 28.2582Z" fill="#1F70C1"/>
<path id="Vector_37" d="M91.6551 15.7597H114.164L112.723 12.4871H91.6551V15.7597Z" fill="#1F70C1"/>
<path id="Vector_38" d="M121.934 9.51602H150V6.24341H123.361L121.934 9.51602Z" fill="#1F70C1"/>
</g>
</g>
</g>
</svg>
