<svg width="152" height="69" viewBox="0 0 152 69" fill="none" xmlns="http://www.w3.org/2000/svg">
<g id="Clip path group">
<mask id="mask0_101_173" style="mask-type:luminance" maskUnits="userSpaceOnUse" x="0" y="0" width="152" height="69">
<g id="clip0_7_16030">
<path id="Vector" d="M152 0H0V69H152V0Z" fill="white"/>
</g>
</mask>
<g mask="url(#mask0_101_173)">
<g id="Group">
<path id="Vector_2" d="M150.939 66.8171C150.939 67.8226 149.742 68.4973 148.324 68.4973V68.4913C146.866 68.4973 145.691 67.8226 145.691 66.8172C145.691 65.8123 146.866 65.1395 148.324 65.1395C149.742 65.1391 150.939 65.8121 150.939 66.8171ZM152 66.8171C152 65.4373 150.261 64.6362 148.324 64.6362C146.373 64.6362 144.634 65.4373 144.634 66.8171C144.634 68.1961 146.374 69.0001 148.324 69.0001C150.262 69.0001 152 68.1961 152 66.8171ZM147.714 67.0015H148.108L149.02 67.9888H150.022L149.011 66.9599C149.533 66.937 149.963 66.7837 149.963 66.3504C149.963 65.8121 149.361 65.6391 148.341 65.6391H146.866V67.9888H147.714V67.0015M147.714 66.6038V66.0379H148.304C148.625 66.0379 149.062 66.0539 149.062 66.2953C149.062 66.5579 148.836 66.6038 148.458 66.6038H147.714Z" fill="black"/>
<path id="Vector_3" d="M127.244 54.7966L131.827 62.5271H122.519L127.244 54.7966ZM122.335 51.7866L111.773 68.2858H119.231L120.902 65.3704H133.402L134.983 68.2858H143.08L132.439 51.7846L122.335 51.7866ZM101.129 68.292H108.696V51.7816L101.128 51.7806L101.129 68.292ZM48.5971 51.7806L42.2837 64.8663L36.2359 51.7816L28.0711 51.7806L36.7086 68.292H47.6101L56.3172 51.7806H48.5971ZM79.1844 55.3757H82.4366C87.155 55.3757 90.2065 56.6817 90.2065 60.071C90.2065 63.4608 87.155 64.767 82.4366 64.767H79.1844V55.3757ZM71.6808 51.7806V68.292H83.9487C90.4847 68.292 92.6191 67.6221 94.9267 66.1194C96.5568 65.0644 97.6111 62.749 97.6111 60.2177C97.6111 57.8963 96.7188 55.8268 95.1633 54.5376C92.3604 52.2314 88.3226 51.7806 82.2971 51.7806H71.6808ZM0 51.7576V68.292H7.63113V55.7372L13.544 55.7384C15.5019 55.7384 16.8975 56.0392 17.8403 56.6601C19.0361 57.4454 19.5244 58.7129 19.5244 61.0315V68.292H26.919V59.1565C26.919 52.6368 20.1783 51.7576 13.583 51.7576H0ZM59.5022 51.7806L59.5053 68.292H67.0688V51.7806H59.5022Z" fill="black"/>
<path id="Vector_4" d="M20.3365 18.9047C20.3365 18.9047 30.0691 10.0517 49.5019 9.13583V5.92399C27.9776 6.98972 9.33853 18.2287 9.33853 18.2287C9.33853 18.2287 19.8954 37.0436 49.5019 38.7661V35.3523C27.7752 33.6672 20.3365 18.9047 20.3365 18.9047ZM49.5019 28.5628V31.6894C33.0813 29.8845 28.5234 19.3611 28.5234 19.3611C28.5234 19.3611 36.4077 13.9765 49.5019 13.1033V16.534C49.4918 16.534 49.4848 16.5322 49.4766 16.5322C42.6041 16.0237 37.2355 19.9818 37.2355 19.9818C37.2355 19.9818 40.2445 26.6451 49.5019 28.5628ZM49.5019 0V5.92399C50.1336 5.89413 50.7656 5.86881 51.4009 5.85547C75.8714 5.34702 91.8159 18.2287 91.8159 18.2287C91.8159 18.2287 73.5033 31.957 54.4248 31.957C52.6762 31.957 51.0392 31.8571 49.5019 31.689V35.3523C50.8167 35.4552 52.1798 35.5157 53.6022 35.5157C71.3558 35.5157 84.1949 29.9259 96.627 23.31C98.6884 24.3277 107.127 26.8035 108.862 27.8874C97.0411 33.9888 69.4923 38.9071 53.8743 38.9071C52.3686 38.9071 50.9231 38.8507 49.5019 38.7661V43.9138H116.983V0H49.5019ZM49.5019 13.1033V9.13583C50.1272 9.10889 50.7574 9.08837 51.4009 9.07583C68.9977 8.73508 80.5424 18.3986 80.5424 18.3986C80.5424 18.3986 68.0729 29.0752 54.7033 29.0752C52.7793 29.0752 51.0544 28.8846 49.5019 28.5628V16.534C56.3522 17.0444 57.7305 18.9099 61.8491 23.1428L71.0093 18.381C71.0093 18.381 64.3225 12.9745 53.0508 12.9745C51.8256 12.9742 50.6531 13.0273 49.5019 13.1033Z" fill="#77B900"/>
</g>
</g>
</g>
</svg>
