<svg width="200" height="200" viewBox="0 0 200 200" fill="none" xmlns="http://www.w3.org/2000/svg">
<g id="Clip path group">
<mask id="mask0_101_165" style="mask-type:luminance" maskUnits="userSpaceOnUse" x="0" y="0" width="200" height="200">
<g id="clip0_28_1290">
<path id="Vector" d="M200 0H0V200H200V0Z" fill="white"/>
</g>
</mask>
<g mask="url(#mask0_101_165)">
<g id="Group">
<path id="Vector_2" fill-rule="evenodd" clip-rule="evenodd" d="M8.57671 -3.00049C4.39195 -3.00049 1 1.47678 1 6.99819V137C1 142.522 4.39195 147 8.57671 147H143.423C147.607 147 151 142.522 151 137V6.99819C151 1.47678 147.607 -3.00049 143.423 -3.00049H8.57671Z" fill="#D52B1E"/>
<path id="Vector_3" fill-rule="evenodd" clip-rule="evenodd" d="M64.4275 64.6823C66.4684 44.7648 73.1968 8.8418 86.0287 8.8418C101.009 8.8418 118.611 75.2507 118.607 130.231H104.792C104.792 72.5649 94.0891 20.6066 86.3881 20.6044C78.3547 20.6033 71.3143 55.9473 71.3143 123.285H57.5185C57.5185 55.9473 50.5207 20.6044 42.4447 20.6044C34.7575 20.6044 24.0624 72.5748 24.0624 130.231H10.2479C10.2608 75.2032 27.8178 8.83507 42.8254 8.8418C55.6393 8.84742 62.3701 44.7601 64.4275 64.6823Z" fill="#FDC82F"/>
<path id="Vector_4" fill-rule="evenodd" clip-rule="evenodd" d="M55.3984 108.136H119.032V86.9146H55.3984V108.136Z" fill="#D52B1E"/>
<path id="Vector_5" fill-rule="evenodd" clip-rule="evenodd" d="M112.613 106.006H116.617V88.6216H112.613V106.006Z" fill="white"/>
<path id="Vector_6" fill-rule="evenodd" clip-rule="evenodd" d="M131.342 88.6213H134.069L133.143 93.3592H131.16L131.342 88.6213Z" fill="white"/>
<path id="Vector_7" fill-rule="evenodd" clip-rule="evenodd" d="M138.768 91.1968C141.431 91.1968 143.934 92.0836 143.946 95.5344H140.143C140.143 94.3455 139.618 93.8054 138.73 93.8054C138.204 93.8054 137.492 94.094 137.492 95.1836C137.493 96.9913 139.659 96.6299 141.498 97.3504C143.15 97.9969 144.296 99.2983 144.296 101.399C144.296 104.617 142.382 106.398 138.768 106.417C134.977 106.437 133.551 104.634 133.539 101.399H137.392C137.392 102.62 137.967 103.347 138.78 103.347C139.752 103.347 140.194 102.86 140.194 101.952C140.194 100.062 137.538 100.111 135.972 99.4345C134.907 98.974 133.938 97.932 133.938 95.7197C133.938 93.8712 134.989 91.1968 138.768 91.1968Z" fill="white"/>
<path id="Vector_8" fill-rule="evenodd" clip-rule="evenodd" d="M56.7628 100.738C56.0983 104.194 53.926 106.434 51.2164 106.435C47.9452 106.435 45.4567 103.168 45.46 98.4407C45.4627 93.7191 47.6746 90.4516 51.2164 90.4473C54.1534 90.4441 56.1754 92.6956 56.7826 96.1563L53.0356 96.1571C52.7482 95.117 52.1959 94.3054 51.2164 94.3046C49.5631 94.3042 49.1272 96.6167 49.1278 98.4407C49.1281 100.265 49.5631 102.577 51.2164 102.577C52.192 102.577 52.7431 101.773 53.0314 100.738L56.7628 100.738Z" fill="white"/>
<path id="Vector_9" fill-rule="evenodd" clip-rule="evenodd" d="M29.1389 88.623H33.9229L36.0052 98.8934L38.0875 88.623H42.8749L44.9665 106.435H41.0194L39.9769 96.0254L37.8199 106.435H34.1905L32.0338 96.0254L30.9906 106.435H27.0408L29.1389 88.623Z" fill="white"/>
<path id="Vector_10" fill-rule="evenodd" clip-rule="evenodd" d="M90.5002 97.4903C90.5002 98.098 90.5002 106.01 90.5002 106.01H86.5417V90.8216H90.5002V92.0081C91.5022 90.978 92.4076 90.4482 94.462 90.4482C96.6931 90.4482 98.4904 92.4155 98.4913 94.4814V106.01H94.5046V97.6499C94.5064 96.261 93.5641 95.1291 92.5384 95.1291C91.2187 95.1291 90.5623 96.67 90.5002 97.4903Z" fill="white"/>
<path id="Vector_11" fill-rule="evenodd" clip-rule="evenodd" d="M125.817 92.3277V88.6216H129.821V106.006H125.817V105.163C125.291 105.789 124.601 106.429 122.876 106.429C120.934 106.429 117.849 105.006 117.847 98.8895C117.844 92.7818 120.93 91.1966 123.125 91.1966C124.72 91.1966 125.473 91.9231 125.817 92.3277ZM121.662 98.8895C121.662 101.267 122.5 102.786 123.877 102.786C124.702 102.786 125.393 102.311 125.818 101.32V96.7599C125.605 95.7531 124.864 95.0108 123.877 95.0108C122.498 95.0096 121.662 96.5125 121.662 98.8895Z" fill="white"/>
<path id="Vector_12" fill-rule="evenodd" clip-rule="evenodd" d="M73.2514 98.4434C73.2547 93.7218 75.5749 90.4536 79.2904 90.4492C83.0074 90.4449 85.327 93.7218 85.3297 98.4434C85.333 103.17 83.0065 106.436 79.2904 106.436C75.5785 106.437 73.2484 103.17 73.2514 98.4434ZM81.5845 98.4434C81.5854 96.6187 81.1066 94.307 79.2904 94.307C77.4745 94.3058 76.9957 96.6187 76.996 98.4434C76.9969 100.267 77.4745 102.579 79.2904 102.579C81.1066 102.579 81.5845 100.267 81.5845 98.4434Z" fill="white"/>
<path id="Vector_13" fill-rule="evenodd" clip-rule="evenodd" d="M58.1581 88.623H65.0371C69.3409 88.623 72.2743 92.151 72.2743 97.5291C72.2743 102.906 69.3418 106.435 65.0371 106.435H58.1581V88.623ZM62.7088 102.225H64.7884C66.136 102.225 67.7764 101.14 67.7764 97.5291C67.7764 93.9223 66.136 92.834 64.7884 92.834H62.7088V102.225Z" fill="white"/>
<path id="Vector_14" fill-rule="evenodd" clip-rule="evenodd" d="M105.632 90.4492C108.474 90.4461 110.816 91.825 110.998 94.8525V106.007H106.991V104.503C106.018 105.603 105.049 106.429 103.297 106.429C101.257 106.429 99.6136 104.301 99.6136 101.806C99.6136 99.3105 100.778 96.5387 105.439 96.5399C106.64 96.5403 106.99 95.9167 106.991 95.1736C106.993 94.261 106.196 93.7519 105.528 93.7519C104.861 93.7519 104.104 94.1189 104.104 95.0727H100.35C100.35 92.8346 101.49 90.4548 105.632 90.4492ZM105.41 99.008C104.486 99.008 103.631 99.6593 103.631 100.906C103.631 101.714 103.993 102.412 104.938 102.411C105.842 102.411 106.806 101.704 106.991 100.237V98.8473C106.685 99.0678 105.994 99.008 105.41 99.008Z" fill="white"/>
<path id="Vector_15" fill-rule="evenodd" clip-rule="evenodd" d="M124.732 118.377H127.192C128.41 118.377 129.22 119.241 129.22 120.381C129.22 121.434 128.606 122.125 127.846 122.212V122.246C129.011 122.764 129.181 123.835 129.195 125.286H128.096C128.056 123.542 127.768 122.782 126.604 122.782H125.7V125.286H124.732V118.377ZM125.7 121.676H126.852C127.755 121.676 128.121 121.262 128.121 120.484C128.121 119.897 127.846 119.482 127.009 119.482H125.7V121.676ZM126.747 115.976C129.234 115.976 131.249 118.619 131.249 121.918C131.249 125.217 129.234 127.86 126.747 127.86C124.26 127.86 122.245 125.217 122.245 121.918C122.245 118.619 124.26 115.976 126.747 115.976ZM126.747 127.221C128.959 127.221 130.765 124.855 130.765 121.918C130.765 118.982 128.959 116.615 126.747 116.615C124.535 116.615 122.729 118.982 122.729 121.918C122.729 124.855 124.535 127.221 126.747 127.221Z" fill="#FDC82F"/>
</g>
</g>
</g>
</svg>
