<svg width="150" height="47" viewBox="0 0 150 47" fill="none" xmlns="http://www.w3.org/2000/svg">
<g id="Group">
<path id="Vector" d="M75 0C33.5622 0 0 10.504 0 23.5005C0 36.493 33.5643 47 75 47C116.441 47 150 36.4925 150 23.5005C150 10.5035 116.441 0 75 0Z" fill="#00095B"/>
<path id="Vector_2" d="M75.3798 44.939C35.4765 44.939 3.12949 35.2351 3.12949 23.2637C3.12949 11.2908 35.4771 1.5874 75.3798 1.5874C115.279 1.5874 147.625 11.2904 147.625 23.2637C147.625 35.2346 115.278 44.939 75.3798 44.939ZM75.3798 3.46542C36.8787 3.46542 5.66938 12.3278 5.66938 23.2637C5.66938 34.2001 36.8775 43.0635 75.3798 43.0635C113.881 43.0635 145.085 34.1996 145.085 23.2637C145.085 12.3278 113.878 3.46542 75.3798 3.46542Z" fill="white"/>
<path id="Vector_3" d="M56.5332 6.98554C55.5081 6.98836 54.4773 7.02309 53.4399 7.097C46.5489 7.59697 39.9897 10.9415 39.9777 16.0192C39.9702 18.5941 42.0939 20.6806 45.3843 20.5888C49.251 20.4757 52.425 17.8055 54.0867 14.4389C54.7173 13.1616 53.5497 12.631 52.9941 13.3664C52.0263 14.6511 50.6784 15.6847 49.0923 16.3582C47.2728 17.1262 45.3282 16.919 44.7387 15.6456C43.9098 13.849 45.6327 11.1607 49.5645 9.89569C55.2435 8.08333 61.1853 9.28219 66.903 10.2081C66.9846 10.2081 67.2891 10.3537 67.0197 10.4747C65.9958 10.9559 64.9878 11.3472 63.4176 12.512C62.2917 13.3432 60.8175 14.4497 59.6775 15.655C58.5459 16.843 57.7437 17.9026 56.6823 19.0773C56.5344 19.2471 56.3523 19.2393 56.3547 19.2393C53.7678 19.6159 51.2352 19.8681 48.9165 21.258C48.4368 21.5433 48.2286 22.0497 48.5193 22.4371C48.7809 22.7806 49.3785 22.8171 49.7937 22.557C51.2343 21.6281 52.7172 21.1908 54.4182 21.1504C54.4923 21.1543 54.528 21.1647 54.549 21.2042C54.5622 21.2264 54.5541 21.2732 54.5235 21.3077C51.9756 24.3545 51.3378 25.043 49.4208 26.9319C48.4407 27.9027 47.4765 28.722 46.3992 29.575C42.0474 33.0601 37.3668 32.9998 35.6874 30.8148C34.6839 29.5034 34.8162 28.1268 35.4738 26.9847C36.2835 25.5859 37.9194 24.5608 39.2802 23.9621C39.7851 23.74 39.9306 23.1832 39.4248 22.6758C39.1035 22.3451 38.3238 22.2864 37.7433 22.3782C35.9607 22.662 33.8544 23.8235 32.61 25.2213C31.2075 26.7899 30.5067 28.6941 30.7422 30.8313C31.1646 34.6872 34.848 36.9148 39.0297 36.8892C42.357 36.8667 45.4914 35.9978 49.2627 32.6976C52.7784 29.6197 55.9812 25.0223 58.9803 20.7589C59.0742 20.6226 59.1411 20.5496 59.5968 20.5007C61.4781 20.2979 64.2555 20.067 66.0357 19.9782C66.4314 19.9594 66.5118 19.9632 66.6705 20.1335C67.1343 20.6379 67.8309 21.066 68.3889 21.3266C68.661 21.4539 68.7903 21.5175 69.0042 21.5204C69.2676 21.5254 69.4728 21.4031 69.6057 21.2738C69.7944 21.0951 69.8466 20.8614 69.7446 20.7109C69.6378 20.553 68.3964 19.9599 68.3595 19.72C68.3325 19.5705 68.5221 19.5343 68.5221 19.5343C69.435 19.2876 70.3845 18.7797 70.9599 17.8296C71.5251 16.8943 71.6163 15.646 70.5822 14.9521C69.6747 14.3425 68.3034 14.4387 67.209 15.2852C66.1386 16.107 65.7846 17.3026 65.9292 18.3504C65.9553 18.532 65.9445 18.5932 65.6568 18.6139C64.0116 18.7274 62.4264 18.7668 60.6633 18.8473C60.5454 18.8546 60.5079 18.7875 60.5766 18.7169C62.6067 15.6766 65.6382 13.5115 68.991 11.3793C69.2133 11.2357 69.1452 10.9626 69.1362 10.7345C75.1899 11.8683 81.0402 13.9783 87.3207 13.9334C89.9181 13.9151 92.4045 13.5746 94.7811 12.4508C96.8712 11.4681 97.7196 10.559 97.7817 9.61435C97.8306 8.96136 97.3038 8.54861 96.5538 8.68927C90.2079 9.94588 84.1542 9.93202 77.841 9.2736C70.6302 8.51915 63.7107 6.96595 56.5332 6.98554ZM69.2001 15.7968C69.3483 15.8037 69.4872 15.8465 69.5994 15.9294C69.9339 16.1757 69.7755 16.7902 69.4377 17.2157C69.0687 17.6851 68.4426 18.0902 67.8717 18.189C67.7574 18.2072 67.6581 18.1648 67.611 17.9462C67.518 17.3672 67.7364 16.5919 68.4543 16.0455C68.679 15.8743 68.9529 15.7854 69.2001 15.7968ZM120.141 15.9078C118.988 15.9078 117.475 15.9095 116.272 15.9095C115.986 15.9095 115.838 15.9397 115.702 16.1692C115.259 16.9021 109.851 23.8877 108.844 25.2445C108.675 25.4508 108.468 25.422 108.444 25.1866C108.342 24.3811 107.535 23.4552 106.264 23.012C105.294 22.6729 104.346 22.6118 103.361 22.7243C101.583 22.9301 99.9987 23.7396 98.6052 24.6512C96.5058 26.0277 94.6947 27.8097 92.3562 29.1276C91.0794 29.8448 89.3316 30.4703 88.1619 29.5374C87.1035 28.6915 87.2226 26.812 88.8423 25.359C89.013 25.2065 89.2176 25.3337 89.1852 25.4704C89.0322 26.1278 89.2206 26.7815 89.7993 27.2401C90.5058 27.7854 91.5171 27.8476 92.382 27.4833C93.4038 27.0474 94.0038 26.2048 94.1796 25.2483C94.4499 23.7651 93.1251 22.4568 91.4685 22.3522C90.1218 22.2707 88.8312 22.6745 87.5736 23.5698C86.9427 24.0204 86.5836 24.354 86.0388 25.0223C85.9056 25.1872 85.7016 25.2039 85.7082 24.9606C85.7712 23.0619 84.8595 21.9934 83.0379 21.9584C81.6252 21.9298 80.1144 22.59 78.9375 23.3994C77.6472 24.2928 76.5189 25.4764 75.3096 26.5887C75.1593 26.7261 75.0279 26.7196 74.9859 26.4537C74.949 25.1956 74.5821 23.9769 73.9065 23.1117C73.6677 22.8106 73.1646 22.6615 72.7419 22.8648C72.5469 22.9571 71.8671 23.2262 71.3733 23.5693C71.1279 23.7435 71.0331 23.9956 71.1408 24.3189C71.7927 26.1978 71.6493 28.335 70.7649 30.1404C69.9525 31.7929 68.3736 33.2845 66.5187 33.789C65.2962 34.1231 64.0251 33.9596 63.2388 33.0254C62.1588 31.7362 62.5953 29.4946 64.2045 27.6321C65.6256 25.9936 67.6797 24.9521 69.7305 24.2814C69.972 24.2014 70.0212 24.0684 69.9531 23.8917C69.8415 23.6005 69.6642 23.2054 69.591 23.0242C69.4032 22.5933 68.8764 22.5228 68.2341 22.5835C66.7449 22.733 65.4018 23.1728 64.0746 23.7853C60.5994 25.3894 58.8576 28.494 58.0935 30.1553C57.726 30.9524 57.4116 31.451 57.0051 31.8921C56.4573 32.4858 55.7697 33.0259 54.5121 33.9779C54.3987 34.0654 54.3138 34.2474 54.4089 34.4161C54.5376 34.6457 55.1913 35.4412 55.3761 35.5123C55.5807 35.5992 55.818 35.478 55.9134 35.4188C56.7933 34.905 57.846 34.0899 58.3614 33.5373C58.5417 33.3482 58.728 33.4278 58.8237 33.7151C59.3046 35.1936 60.5634 36.4008 62.3046 36.9056C65.4906 37.832 68.796 36.4914 71.2905 34.1573C72.8757 32.6741 73.4478 31.72 74.0556 31.0713C75.0849 29.9712 77.1168 27.5104 79.536 25.9305C80.4234 25.3481 81.474 24.9039 82.0023 25.1985C82.4259 25.4355 82.5624 25.9857 81.882 27.0518C79.416 30.9347 75.7851 35.4966 75.1194 36.6037C74.9982 36.7957 75.1041 36.9464 75.3372 36.9464C76.6281 36.9414 77.9082 36.9438 79.0803 36.9438C79.2747 36.9359 79.3626 36.8594 79.4601 36.7403C81.3531 34.1863 83.1351 31.754 85.0443 29.2404C85.1523 29.0924 85.2501 29.207 85.2543 29.2718C85.2939 29.8547 85.4598 30.6529 85.8612 31.177C86.5836 32.1452 87.6063 32.5613 88.7415 32.5678C89.6439 32.5767 90.1002 32.4584 91.0737 32.145C91.7547 31.9245 92.3991 31.6263 92.9901 31.2583C93.2751 31.088 93.3249 31.3734 93.3177 31.4176C92.88 33.4456 93.4209 35.8479 95.7588 36.8445C98.5572 38.0339 101.631 36.3624 103.4 34.8536C103.573 34.7078 103.759 34.7233 103.777 35.0361C103.815 35.6126 104.116 36.2963 104.669 36.775C106.151 38.0574 109.143 37.5494 112.145 35.546C114.072 34.2641 116.089 32.4524 117.91 30.534C117.978 30.4599 118.028 30.34 117.898 30.2196C117.62 29.9694 117.219 29.6829 116.944 29.4622C116.818 29.3705 116.634 29.3966 116.528 29.4664C114.661 30.9968 112.981 32.7428 110.551 34.1863C109.732 34.6789 108.427 35.0766 107.84 34.3926C107.611 34.1273 107.638 33.7593 107.863 33.2771C108.572 31.754 119.785 17.0369 120.367 16.1702L120.368 16.1692C120.468 16.0181 120.362 15.9078 120.141 15.9078ZM104.429 25.1085C104.722 25.1063 104.998 25.155 105.248 25.2587C106.629 25.8269 106.188 27.2054 105.57 28.2877C105.55 28.3216 105.536 28.3587 105.532 28.3971C105.528 28.4355 105.532 28.4742 105.545 28.511C105.568 28.6236 105.738 28.7325 105.905 28.7844C105.964 28.803 105.997 28.8395 105.931 28.9581C105.453 29.8391 105.016 30.347 104.417 31.112C103.869 31.8193 103.249 32.3706 102.499 32.9016C101.368 33.7086 99.7974 34.5867 98.499 33.9964C97.9218 33.7376 97.6731 33.0421 97.6842 32.479C97.7145 30.8947 98.529 29.2689 100.038 27.6708C101.533 26.0843 103.157 25.1183 104.429 25.1085Z" fill="white"/>
</g>
</svg>
