<svg width="150" height="47" viewBox="0 0 150 47" fill="none" xmlns="http://www.w3.org/2000/svg">
<g id="Tata" clip-path="url(#clip0_101_135)">
<path id="Vector" fill-rule="evenodd" clip-rule="evenodd" d="M91.6394 9.6853H71.9005V17.1078H78.4979V32.9879H84.9334V17.1078H91.6394V9.6853ZM110.927 32.927L104.707 9.6853H96.8731L90.653 32.927H97.0891L100.789 16.4016L104.491 32.927H110.927ZM130.633 9.6853H110.895V17.1078H117.492V32.9879H123.927V17.1078H130.633V9.6853ZM149.704 32.927L143.482 9.6853H135.651L129.429 32.927H135.867L139.568 16.4016L143.267 32.927H149.704ZM23.9086 34.6076C25.3107 27.7401 26.3508 21.0366 26.3508 21.0366C26.3508 21.0366 26.8738 18.8257 25.8278 17.318C24.7817 15.8103 21.5568 16.3132 21.5568 16.3132C21.5568 16.3132 16.5473 16.382 11.4415 17.0911C6.89456 17.7236 2.25474 18.7637 0.544308 19.1635C0.186719 20.5726 0.00347405 22.0328 0 23.5009C0 33.8483 8.96788 42.6272 21.418 45.7634C22.0713 43.0249 23.0534 38.7907 23.9086 34.6076Z" fill="#2D509F"/>
<path id="Vector_2" fill-rule="evenodd" clip-rule="evenodd" d="M33.1627 30.285C33.1031 21.9629 33.305 14.2015 33.305 14.2015C33.305 14.2015 33.0733 13.0327 33.7198 12.4611C34.3816 11.8767 35.92 11.8904 35.92 11.8904C35.92 11.8904 41.8878 12.084 48.5754 13.0731C53.458 13.7969 58.7375 14.9578 61.1218 15.5069C56.7383 6.46284 45.1298 0 31.4966 0C17.8097 0 6.16797 6.51489 1.82373 15.612C3.91408 15.1268 9.59651 13.8489 14.8291 13.074C21.5168 12.0849 27.4829 11.8915 27.4829 11.8915C27.4829 11.8915 29.0229 11.8777 29.684 12.462C30.3304 13.0338 30.0987 14.2026 30.0987 14.2026C30.0987 14.2026 30.3015 21.9639 30.241 30.286C30.1933 36.6643 30.0229 43.3541 29.919 46.9695C30.4412 46.9892 30.9659 47 31.4957 47C32.1635 47 32.8254 46.9794 33.483 46.9479C33.3799 43.3256 33.2104 36.6506 33.1627 30.285Z" fill="#2D509F"/>
<path id="Vector_3" fill-rule="evenodd" clip-rule="evenodd" d="M51.9639 17.0904C46.8581 16.3812 41.8478 16.3124 41.8478 16.3124C41.8478 16.3124 38.6237 15.8105 37.5759 17.3172C36.5308 18.8248 37.0546 21.0358 37.0546 21.0358C37.0546 21.0358 38.0938 27.7393 39.4959 34.6068C40.34 38.7408 41.3094 42.9231 41.9627 45.6644C54.2118 42.4457 62.9931 33.7376 62.9931 23.5001C62.9931 21.9816 62.7929 20.5005 62.4249 19.0626C60.4505 18.6078 56.1667 17.6748 51.9639 17.0904Z" fill="#2D509F"/>
</g>
<defs>
<clipPath id="clip0_101_135">
<rect width="150" height="47" fill="white"/>
</clipPath>
</defs>
</svg>
